<svg width="28" height="30" viewBox="0 0 28 30" fill="none" xmlns="http://www.w3.org/2000/svg">
    <path d="M25 30C26.6569 30 28 28.6569 28 27C28 25.3431 26.6569 24 25 24C23.3431 24 22 25.3431 22 27C22 28.6569 23.3431 30 25 30Z" fill="#93C718"/>
    <path d="M14 18C15.6569 18 17 16.6569 17 15C17 13.3431 15.6569 12 14 12C12.3431 12 11 13.3431 11 15C11 16.6569 12.3431 18 14 18Z" fill="#93C718"/>
    <path d="M14 30C15.6569 30 17 28.6569 17 27C17 25.3431 15.6569 24 14 24C12.3431 24 11 25.3431 11 27C11 28.6569 12.3431 30 14 30Z" fill="#93C718"/>
    <path d="M3 6C4.65685 6 6 4.65685 6 3C6 1.34315 4.65685 0 3 0C1.34315 0 0 1.34315 0 3C0 4.65685 1.34315 6 3 6Z" fill="#93C718"/>
    <path d="M3 18C4.65685 18 6 16.6569 6 15C6 13.3431 4.65685 12 3 12C1.34315 12 0 13.3431 0 15C0 16.6569 1.34315 18 3 18Z" fill="#93C718"/>
    <path d="M3 30C4.65685 30 6 28.6569 6 27C6 25.3431 4.65685 24 3 24C1.34315 24 0 25.3431 0 27C0 28.6569 1.34315 30 3 30Z" fill="#93C718"/>
</svg>