<svg width="16" height="15" viewBox="0 0 16 15" fill="none" xmlns="http://www.w3.org/2000/svg">
    <path d="M12.4737 2.47761C8.2151 -3.32712 2.8298 2.65231 1.71468 4.42287C-1.26367 9.14584 0.101157 10.7412 2.30421 12.9803C5.22567 15.9417 9.47723 15.348 13.9276 13.121C17.925 11.1186 15.4153 6.49126 12.4737 2.47761ZM4.72475 6.77009C5.44467 5.68633 6.57842 5.16823 7.25504 5.61375C7.93368 6.05926 7.89743 7.2972 7.17751 8.38196C6.45759 9.46521 5.32334 9.98582 4.64672 9.5403C3.96808 9.09578 4.00483 7.85485 4.72475 6.77009ZM14.1215 11.0235C14.0072 11.0235 10.684 9.77557 8.47991 10.9569C6.32922 12.1093 6.54469 13.5009 6.54469 13.5009C6.54469 13.5009 6.50341 14.1161 5.76989 14.046C5.09528 13.9824 5.13203 13.3712 5.13203 13.2576C5.13002 13.2121 5.17281 12.8481 5.22064 12.4301L5.3032 11.9376C5.37218 11.1076 6.58345 11.0826 7.79272 9.61939C9.78785 7.20509 9.4153 5.11016 8.16073 4.25968C6.89005 3.39818 4.67894 4.23665 3.3126 6.79211C2.75278 7.83732 2.81168 8.83999 2.30623 8.92809C2.06206 8.97214 1.6301 8.86251 1.4539 8.68981C1.01742 8.25331 1.81789 6.4372 2.51666 5.24432C4.13069 2.49613 7.03353 0.647991 9.15905 1.71923C10.9216 2.60576 11.6531 5.53466 10.4871 8.10113C10.4368 8.23529 10.1604 9.05474 10.8944 9.12582C11.418 9.17788 14.3641 9.61639 14.3641 9.61639C14.3641 9.61639 14.9834 9.65744 14.9134 10.3873C14.8484 11.0596 14.2337 11.021 14.1215 11.0235Z" fill="#898989"/>
</svg>